<svg width="256" height="273" viewBox="0 0 256 273" fill="none" xmlns="http://www.w3.org/2000/svg">
<g clip-path="url(#clip0)">
<path d="M127.694 148.561H232.832C237.802 148.561 241.854 152.62 241.854 157.597V244.973C241.854 249.95 237.802 254.009 232.832 254.009H228.779C227.479 254.009 226.409 255.081 226.409 256.383V271.009C226.409 272.77 224.268 273.613 223.044 272.387L206.452 255.847C205.305 254.698 203.699 254.009 202.093 254.009H127.694C122.724 254.009 118.671 249.95 118.671 244.973V157.597C118.595 152.62 122.648 148.561 127.694 148.561Z" fill="#4CBF9D"/>
<path d="M250.953 208.981H232.755C230.002 208.981 227.708 206.76 227.708 203.927V185.701C227.708 182.944 229.926 180.647 232.755 180.647H250.953C253.706 180.647 256 182.868 256 185.701V203.927C256 206.684 253.706 208.981 250.953 208.981Z" fill="#398F76"/>
<path d="M236.655 191.368H235.584C235.431 190.908 235.049 190.602 234.361 190.602C233.52 190.602 232.908 191.291 232.908 192.287C232.908 193.282 233.52 193.972 234.361 193.972C235.049 193.972 235.431 193.589 235.584 193.129H236.578C236.349 194.201 235.584 194.891 234.284 194.891C232.831 194.891 231.837 193.818 231.837 192.287C231.837 190.832 232.831 189.76 234.284 189.76C235.584 189.683 236.349 190.372 236.655 191.368Z" fill="white"/>
<path d="M238.796 194.737V192.899L236.884 189.76H238.031L239.101 191.521L239.254 191.827L239.407 191.521L240.478 189.76H241.625L239.713 192.899V194.737H238.796Z" fill="white"/>
<path fill-rule="evenodd" clip-rule="evenodd" d="M244.76 193.665L245.142 194.737H246.213L244.301 189.76H243.23L241.319 194.737H242.389L242.772 193.665H244.76ZM244.454 192.746H243.077L243.689 191.215L243.766 190.908L243.842 191.215L244.454 192.746Z" fill="white"/>
<path d="M250.342 194.737L248.277 191.751L248.124 191.444V194.737H247.13V189.76H248.124L250.189 192.746L250.418 193.129V189.76H251.412V194.737H250.342Z" fill="white"/>
<path d="M238.719 202.395V201.476H236.655V197.418H235.661V202.395H238.719Z" fill="white"/>
<path d="M241.013 198.337V202.395H240.095V198.337H238.49V197.418H242.695V198.337H241.013Z" fill="white"/>
<path fill-rule="evenodd" clip-rule="evenodd" d="M245.448 202.319C246.977 202.319 247.971 201.323 247.971 199.868C247.971 198.413 246.977 197.418 245.448 197.341H243.613V202.319H245.448ZM245.448 201.476H244.53V198.26H245.448C246.442 198.26 246.977 198.796 246.977 199.868C246.977 200.94 246.442 201.476 245.448 201.476Z" fill="white"/>
<path d="M181.907 196.499L153.08 213.04L181.907 229.504L210.734 213.04L181.907 196.499Z" fill="#F4EDE4"/>
<path d="M181.907 229.504V254.009H202.093C203.699 254.009 205.305 254.621 206.452 255.847L210.734 260.135V213.04L181.907 229.504Z" fill="#398F76"/>
<path d="M153.08 213.04V254.009H181.907V229.504L153.08 213.04Z" fill="#B7E5D8"/>
<path d="M181.907 162.804L163.479 173.372L181.907 183.863L200.334 173.372L181.907 162.804Z" fill="#F4EDE4"/>
<path d="M181.907 183.863L163.479 173.372V213.346L181.907 223.914V183.863Z" fill="#B7E5D8"/>
<path d="M181.907 183.863V223.914L200.334 213.346V173.372L181.907 183.863Z" fill="#398F76"/>
<path d="M167.914 179.192L166.614 178.35L166.461 214.954L167.837 215.72L167.914 179.192Z" fill="#398F76"/>
<path d="M159.121 254.009H156.827L156.903 223.378L159.197 224.679L159.121 254.009Z" fill="#398F76"/>
<path d="M177.472 254.009H175.178L175.254 234.022L177.472 235.324V254.009Z" fill="#398F76"/>
<path d="M163.02 254.009H165.238L165.314 228.202L163.02 226.9V254.009Z" fill="#398F76"/>
<path d="M171.355 254.009H169.061L169.137 230.423L171.431 231.725L171.355 254.009Z" fill="#398F76"/>
<path d="M170.208 180.494L171.584 181.26L171.431 217.864L170.131 217.098L170.208 180.494Z" fill="#398F76"/>
<path d="M175.178 183.327L173.802 182.562L173.725 219.166L175.101 219.932L175.178 183.327Z" fill="#398F76"/>
<path d="M177.472 184.706L178.772 185.472L178.695 221.999L177.395 221.233L177.472 184.706Z" fill="#398F76"/>
<path d="M196.358 178.962L197.658 178.197L197.811 214.801L196.435 215.567L196.358 178.962Z" fill="#B7E5D8"/>
<path d="M194.064 180.341L192.765 181.107L192.841 217.711L194.141 216.945L194.064 180.341Z" fill="#B7E5D8"/>
<path d="M189.094 183.174L190.471 182.408L190.547 219.013L189.247 219.778L189.094 183.174Z" fill="#B7E5D8"/>
<path d="M186.8 184.476L185.5 185.318L185.577 221.846L186.953 221.08L186.8 184.476Z" fill="#B7E5D8"/>
<path d="M207.14 223.378L207.216 256.612L206.452 255.77C206.069 255.387 205.534 255.004 204.999 254.698L204.922 224.679L207.14 223.378Z" fill="#B7E5D8"/>
<path d="M186.571 235.324L188.788 234.022L188.865 254.009H186.571V235.324Z" fill="#B7E5D8"/>
<path d="M201.023 226.9L198.805 228.202V254.009H201.099L201.023 226.9Z" fill="#B7E5D8"/>
<path d="M192.688 231.725L194.906 230.423L194.982 254.009H192.688V231.725Z" fill="#B7E5D8"/>
<path d="M181.907 160.124L170.514 166.71L181.907 173.219L193.376 166.71L181.907 160.124Z" fill="#F4EDE4"/>
<path d="M181.907 173.219L170.514 166.71V171.151L181.907 177.737V173.219Z" fill="#B7E5D8"/>
<path d="M181.907 173.219V177.737L193.376 171.151V166.71L181.907 173.219Z" fill="#398F76"/>
<path d="M118.595 14.1669H223.732C228.702 14.1669 232.755 18.2255 232.755 23.2031V110.578C232.755 115.556 228.702 119.615 223.732 119.615H219.68C218.38 119.615 217.309 120.687 217.309 121.988V136.615C217.309 138.376 215.168 139.218 213.945 137.993L197.352 121.376C196.205 120.227 194.6 119.538 192.994 119.538H118.595C113.625 119.538 109.572 115.479 109.572 110.502V23.2031C109.572 18.2255 113.625 14.1669 118.595 14.1669Z" fill="#FFC1C7"/>
<path d="M214.022 28.3338H195.823C193.071 28.3338 190.777 26.113 190.777 23.2797V5.05414C190.777 2.29734 192.994 0 195.823 0H214.022C216.774 0 219.068 2.22076 219.068 5.05414V23.2797C219.068 26.0365 216.774 28.3338 214.022 28.3338Z" fill="#E66C79"/>
<path d="M204.387 10.1083H203.317C203.164 9.64885 202.781 9.34254 202.093 9.34254C201.252 9.34254 200.64 10.0317 200.64 11.0273C200.64 12.0228 201.252 12.712 202.093 12.712C202.781 12.712 203.164 12.3291 203.317 11.8696H204.311C204.081 12.9417 203.317 13.6309 202.017 13.6309C200.564 13.6309 199.57 12.5588 199.57 11.0273C199.57 9.57228 200.564 8.50019 202.017 8.50019C203.393 8.42361 204.158 9.11281 204.387 10.1083Z" fill="white"/>
<path fill-rule="evenodd" clip-rule="evenodd" d="M198.27 13.4785L197.888 12.4064H195.9L195.517 13.4785H194.447L196.358 8.50092H197.429L199.34 13.4785H198.27ZM197.582 11.564L196.97 10.0325L196.894 9.72616L196.817 10.0325L196.205 11.564H197.582Z" fill="white"/>
<path d="M209.74 10.3381V13.4777H210.657V8.50018H209.51L208.057 11.7165L207.981 12.0228L207.904 11.7165L206.452 8.50018H205.305V13.4777H206.299V10.3381L206.452 10.7975L207.599 13.4777H208.44L209.587 10.7975L209.74 10.3381Z" fill="white"/>
<path d="M213.027 9.49572V10.4912H214.633V11.4102H213.027V12.6354H214.939V13.5543H212.11V8.57678H214.939V9.49572H213.027Z" fill="white"/>
<path d="M198.729 16.158V21.1355H199.723V16.158H198.729Z" fill="white"/>
<path d="M204.234 21.1355L202.17 18.149L202.017 17.8427V21.1355H201.023V16.158H202.017L204.081 19.1445L204.311 19.5274V16.158H205.305V21.1355H204.234Z" fill="white"/>
<path d="M209.969 17.7661H211.039C210.81 16.7706 210.045 16.0814 208.669 16.158C207.216 16.158 206.222 17.2301 206.222 18.685C206.222 20.2166 207.216 21.2887 208.669 21.2887C209.969 21.2887 210.733 20.5995 210.963 19.5274H209.969C209.816 19.9869 209.434 20.3697 208.745 20.3697C207.904 20.3697 207.293 19.6805 207.293 18.685C207.293 17.6895 207.904 17.0003 208.745 17.0003C209.434 17.0003 209.816 17.3066 209.969 17.7661Z" fill="white"/>
<path d="M171.049 25.6536L147.269 39.2078L171.049 52.7621L194.753 39.2078L171.049 25.6536Z" fill="#F4EDE4"/>
<path d="M147.269 39.2079V119.615H171.049V52.7622L147.269 39.2079Z" fill="#FFCDD2"/>
<path d="M171.049 52.7622V119.615H193.071C193.682 119.615 194.218 119.691 194.829 119.844V39.2079L171.049 52.7622Z" fill="#E67B85"/>
<path d="M175.637 106.213L190.088 97.8665V101.006L175.637 109.353V106.213Z" fill="#FFCDD2"/>
<path d="M175.637 113.948L190.088 105.601V108.817L175.637 117.164V113.948Z" fill="#FFCDD2"/>
<path d="M175.637 98.4791L190.088 90.0555V93.2718L175.637 101.619V98.4791Z" fill="#FFCDD2"/>
<path d="M175.637 90.6682L190.088 82.3212V85.4609L175.637 93.8078V90.6682Z" fill="#FFCDD2"/>
<path d="M175.637 82.9338L190.088 74.5868V77.7265L175.637 86.0735V82.9338Z" fill="#FFCDD2"/>
<path d="M175.637 75.1229L190.088 66.7759V69.9922L175.637 78.3391V75.1229Z" fill="#FFCDD2"/>
<path d="M175.637 67.3885L190.088 59.0415V62.1812L175.637 70.5282V67.3885Z" fill="#FFCDD2"/>
<path d="M175.637 59.5776L190.088 51.2306V54.4469L175.637 62.7938V59.5776Z" fill="#FFCDD2"/>
<path d="M166.385 59.5776L151.933 51.2306V54.4469L166.385 62.7938V59.5776Z" fill="#F4EDE4"/>
<path d="M151.933 59.0415L166.385 67.3885V70.5282L151.933 62.1812V59.0415Z" fill="#F4EDE4"/>
<path d="M166.385 75.1229L151.933 66.7759V69.9921L166.385 78.3391V75.1229Z" fill="#F4EDE4"/>
<path d="M151.933 74.5868L166.385 82.9338V86.0735L151.933 77.7265V74.5868Z" fill="#F4EDE4"/>
<path d="M166.385 90.6682L151.933 82.3212V85.4609L166.385 93.8078V90.6682Z" fill="#F4EDE4"/>
<path d="M151.933 90.0555L166.385 98.4791V101.619L151.933 93.2718V90.0555Z" fill="#F4EDE4"/>
<path d="M166.385 106.213L151.933 97.8665V101.006L166.385 109.353V106.213Z" fill="#F4EDE4"/>
<path d="M166.385 113.948L151.933 105.601V108.817L166.385 117.164V113.948Z" fill="#F4EDE4"/>
<path d="M151.933 113.412L162.714 119.615H157.209L151.933 116.551V113.412Z" fill="#F4EDE4"/>
<path d="M190.088 54.4469V51.2306L175.637 59.5776V62.7938L190.088 54.4469Z" fill="#FFCDD2"/>
<path d="M190.088 59.0415V62.1812L175.637 70.5282V67.3885L190.088 59.0415Z" fill="#FFCDD2"/>
<path d="M190.088 69.9921V66.7759L175.637 75.1229V78.3391L190.088 69.9921Z" fill="#FFCDD2"/>
<path d="M190.088 74.5868V77.7265L175.637 86.0735V82.9338L190.088 74.5868Z" fill="#FFCDD2"/>
<path d="M190.088 85.4609V82.3212L175.637 90.6682V93.8078L190.088 85.4609Z" fill="#FFCDD2"/>
<path d="M190.088 90.0555V93.2718L175.637 101.619V98.4791L190.088 90.0555Z" fill="#FFCDD2"/>
<path d="M190.088 101.006V97.8665L175.637 106.213V109.353L190.088 101.006Z" fill="#FFCDD2"/>
<path d="M190.088 108.817V105.601L175.637 113.948V117.164L190.088 108.817Z" fill="#FFCDD2"/>
<path d="M190.088 116.551L184.812 119.615H179.307L190.088 113.412V116.551Z" fill="#FFCDD2"/>
<path d="M128.306 85.9969H23.1685C18.1983 85.9969 14.1458 90.0556 14.1458 95.0331V182.408C14.1458 187.386 18.1983 191.445 23.1685 191.445H27.221C28.5209 191.445 29.5914 192.517 29.5914 193.819V208.445C29.5914 210.206 31.7324 211.049 32.9558 209.823L49.5484 193.206C50.6953 192.057 52.3011 191.368 53.9068 191.368H128.306C133.276 191.368 137.329 187.309 137.329 182.332V95.1097C137.329 90.0556 133.276 85.9969 128.306 85.9969Z" fill="#FFD57E"/>
<path d="M23.2449 155.759H5.0466C2.29391 155.759 0 153.539 0 150.705V132.48C0 129.723 2.21744 127.426 5.0466 127.426H23.2449C25.9976 127.426 28.2915 129.646 28.2915 132.48V150.705C28.2915 153.539 25.9976 155.759 23.2449 155.759Z" fill="#BF7900"/>
<path d="M12.9989 140.98V136.002H13.9929V140.98H12.9989Z" fill="white"/>
<path fill-rule="evenodd" clip-rule="evenodd" d="M11.6226 137.457C11.6226 137.917 11.4697 138.223 11.1638 138.453C11.6226 138.606 11.852 139.065 11.852 139.601C11.852 140.444 11.2403 141.056 10.1698 141.056H8.41113V136.079H10.0169C11.0109 136.002 11.6226 136.538 11.6226 137.457ZM9.40516 138.07H10.0169C10.3992 138.07 10.6286 137.84 10.6286 137.534C10.6286 137.151 10.3992 136.921 10.0169 136.921H9.40516V138.07ZM9.40516 140.061H10.2463C10.705 140.061 10.9344 139.831 10.9344 139.448C10.9344 139.065 10.705 138.836 10.2463 138.836H9.40516V140.061Z" fill="white"/>
<path d="M18.7337 137.61H19.8041C19.4983 136.615 18.7337 135.926 17.4338 136.079C15.981 136.079 14.9869 137.151 14.9869 138.606C14.9869 140.137 16.0574 141.21 17.5102 141.21C18.8866 141.21 19.8041 140.291 19.8041 138.836V138.376H17.5867V139.295H18.8101C18.8101 139.908 18.2749 140.214 17.5867 140.214C16.6691 140.214 16.0574 139.525 16.0574 138.529C16.0574 137.534 16.6691 136.845 17.5102 136.845C18.1984 136.845 18.5807 137.151 18.7337 137.61Z" fill="white"/>
<path d="M9.02277 145.268H7.95228C7.79935 144.809 7.41704 144.502 6.72886 144.502C5.88776 144.502 5.27606 145.192 5.27606 146.187C5.27606 147.183 5.88776 147.872 6.72886 147.872C7.41704 147.872 7.79935 147.489 7.95228 147.029H8.94631C8.71692 148.101 7.95228 148.791 6.6524 148.791C5.19959 148.791 4.20557 147.719 4.20557 146.187C4.20557 144.732 5.19959 143.66 6.6524 143.66C8.02874 143.583 8.79338 144.273 9.02277 145.268Z" fill="white"/>
<path fill-rule="evenodd" clip-rule="evenodd" d="M12.4637 148.714C13.9165 148.714 14.987 147.566 14.987 146.111C14.987 144.656 13.9165 143.583 12.4637 143.583C10.9344 143.583 9.86389 144.656 9.86389 146.111C9.86389 147.642 10.9344 148.714 12.4637 148.714ZM12.3872 147.795C11.4696 147.795 10.8579 147.106 10.8579 146.111C10.8579 145.192 11.4696 144.502 12.3872 144.426C13.3048 144.426 13.9165 145.192 13.9165 146.111C13.9165 147.106 13.3048 147.795 12.3872 147.795Z" fill="white"/>
<path fill-rule="evenodd" clip-rule="evenodd" d="M18.4279 148.638L17.4338 146.8H16.9751V148.638H16.0575V143.66H17.5868C18.6573 143.66 19.3454 144.273 19.3454 145.268C19.3454 145.881 19.0396 146.34 18.5043 146.647L19.5748 148.714H18.4279V148.638ZM17.0515 145.881H17.5868C18.0455 145.881 18.3514 145.651 18.3514 145.192C18.3514 144.732 18.0455 144.502 17.5868 144.502H17.0515V145.881Z" fill="white"/>
<path fill-rule="evenodd" clip-rule="evenodd" d="M22.098 146.876C23.1685 146.876 23.8567 146.187 23.8567 145.268C23.8567 144.349 23.1685 143.66 22.098 143.66H20.4923V148.638H21.4863V146.876H22.098ZM22.098 145.957H21.4863V144.579H22.098C22.5568 144.579 22.8627 144.809 22.8627 145.268C22.8627 145.728 22.5568 145.957 22.098 145.957Z" fill="white"/>
<path d="M75.3166 102.385L102.614 118.236L84.7216 128.574L75.2402 122.984L65.6058 128.574L47.8662 118.236L75.3166 102.385Z" fill="#FFDDA3"/>
<path d="M84.7217 191.445H102.614V118.236L84.7217 128.574V191.445Z" fill="#FFC766"/>
<path d="M65.6821 191.445H75.2401V122.984L65.6821 128.574V191.445Z" fill="#FFC766"/>
<path d="M75.2402 191.445H84.7217V128.574L75.2402 122.984V191.445Z" fill="#BF7900"/>
<path d="M47.8662 194.967L49.5484 193.283C50.6954 192.134 52.3011 191.445 53.9068 191.445H65.6822V128.498L47.8662 118.16V194.967Z" fill="#BF7900"/>
<path d="M75.2401 119.997L84.7215 125.511L97.338 118.236L75.3165 105.448L53.1421 118.236L65.6057 125.511L75.2401 119.997Z" fill="#E6A534"/>
<path d="M85.0274 114.637L91.0681 118.16L85.0274 121.759L78.9868 118.16L85.0274 114.637Z" fill="#FFC766"/>
<path d="M75.3165 106.596L54.1361 118.849L53.1421 118.236L75.3165 105.448L97.338 118.236L96.2675 118.849L75.3165 106.596Z" fill="black"/>
<path d="M85.0274 121.759L91.068 118.16V119.461L85.0274 123.061L78.9868 119.461V118.16L85.0274 121.759Z" fill="black"/>
<path d="M51.3071 192.057C51.613 191.904 51.9953 191.751 52.3012 191.674L52.4541 132.326L51.4601 131.714L51.3071 192.057Z" fill="#FFC766"/>
<path d="M55.1303 191.445H54.0598L54.2127 133.322L55.2068 133.935L55.1303 191.445Z" fill="#FFC766"/>
<path d="M60.7122 191.445H59.6417L59.7946 136.538L60.7886 137.151L60.7122 191.445Z" fill="#FFC766"/>
<path d="M57.883 191.445H56.889L56.9654 134.93L58.0359 135.543L57.883 191.445Z" fill="#FFC766"/>
<path d="M97.4911 129.57L99.8615 128.191V130.872L97.4911 132.25V129.57Z" fill="#E69100"/>
<path d="M92.8269 132.25L95.1973 130.872V133.552L92.8269 134.93V132.25Z" fill="#E69100"/>
<path d="M90.533 133.628L88.1626 134.93L88.2391 137.61L90.533 136.309V133.628Z" fill="#E69100"/>
<path d="M97.5676 134.93L99.8615 133.552V136.232L97.5676 137.61V134.93Z" fill="#E69100"/>
<path d="M95.1972 136.232L92.9033 137.61V140.291L95.1972 138.989V136.232Z" fill="#E69100"/>
<path d="M88.2391 140.291L90.533 138.989V141.669L88.2391 142.971V140.291Z" fill="#E69100"/>
<path d="M99.8615 138.912L97.5676 140.291V142.971L99.8615 141.592V138.912Z" fill="#E69100"/>
<path d="M92.9033 142.971L95.1972 141.669V144.349L92.9033 145.651V142.971Z" fill="#E69100"/>
<path d="M90.533 144.349L88.2391 145.651V148.331L90.533 147.029V144.349Z" fill="#E69100"/>
<path d="M97.5676 145.651L99.8615 144.273L99.938 146.953L97.5676 148.331V145.651Z" fill="#E69100"/>
<path d="M95.2737 147.029L92.9033 148.331V151.011L95.2737 149.71V147.029Z" fill="#E69100"/>
<path d="M88.2391 151.012L90.533 149.71L90.6095 152.39L88.2391 153.692V151.012Z" fill="#E69100"/>
<path d="M99.938 149.633L97.5676 151.011V153.692L99.938 152.39V149.633Z" fill="#E69100"/>
<path d="M92.9033 153.692L95.2737 152.39V155.07L92.9033 156.372V153.692Z" fill="#E69100"/>
<path d="M90.6095 155.07L88.2391 156.372V159.129L90.6095 157.75V155.07Z" fill="#E69100"/>
<path d="M97.5676 156.372L99.938 155.07V157.75L97.5676 159.052V156.372Z" fill="#E69100"/>
<path d="M95.2737 157.75L92.9033 159.052V161.732L95.2737 160.431V157.75Z" fill="#E69100"/>
<path d="M88.2391 161.809L90.6095 160.431V163.111L88.3155 164.489L88.2391 161.809Z" fill="#E69100"/>
<path d="M99.938 160.431L97.6441 161.732V164.413L99.938 163.111V160.431Z" fill="#E69100"/>
<path d="M92.9798 164.489L95.2737 163.111V165.791L92.9798 167.169V164.489Z" fill="#E69100"/>
<path d="M90.6095 165.791L88.3156 167.169V169.85L90.6095 168.471V165.791Z" fill="#E69100"/>
<path d="M97.6441 167.093L99.938 165.791V168.471L97.6441 169.773V167.093Z" fill="#E69100"/>
<path d="M95.2737 168.471L92.9798 169.85V172.53L95.2737 171.151V168.471Z" fill="#E69100"/>
<path d="M88.3156 172.53L90.6095 171.151V173.832L88.3156 175.21V172.53Z" fill="#E69100"/>
<path d="M99.938 171.151L97.6441 172.53V175.21L100.014 173.832L99.938 171.151Z" fill="#E69100"/>
<path d="M92.9798 175.21L95.3502 173.832V176.512L92.9798 177.89V175.21Z" fill="#E69100"/>
<path d="M90.6095 176.512L88.3156 177.89V180.571L90.6859 179.192L90.6095 176.512Z" fill="#E69100"/>
<path d="M97.4911 177.89L99.8615 176.512V179.192L97.4911 180.571V177.89Z" fill="#E69100"/>
<path d="M95.1973 179.269L92.8269 180.57V183.251L95.1973 181.949V179.269Z" fill="#E69100"/>
<path d="M88.1626 183.251L90.533 181.949V184.629L88.2391 185.931L88.1626 183.251Z" fill="#E69100"/>
<path d="M99.8615 181.872L97.5676 183.251V185.931L99.8615 184.553V181.872Z" fill="#E69100"/>
<path d="M92.9033 185.931L95.1972 184.629V187.309L92.9033 188.611V185.931Z" fill="#E69100"/>
<path d="M90.533 187.309L88.2391 188.611V191.291L90.533 189.99V187.309Z" fill="#E69100"/>
<path d="M97.5676 188.611L99.8615 187.233V189.913L97.5676 191.291V188.611Z" fill="#E69100"/>
<path d="M95.1972 189.99L92.9033 191.291V191.445H95.1972V189.99Z" fill="#E69100"/>
<path d="M75.2402 191.445V122.984L69.7349 191.445H75.2402Z" fill="black"/>
<path d="M128.306 85.9969H109.572V110.578C109.572 115.556 113.625 119.615 118.595 119.615H137.329V95.0331C137.329 90.0556 133.276 85.9969 128.306 85.9969Z" fill="#C76C61"/>
<path d="M127.694 148.561C122.724 148.561 118.671 152.62 118.671 157.597V191.445H128.382C133.352 191.445 137.405 187.386 137.405 182.408V148.561H127.694Z" fill="#185F34"/>
</g>
<defs>
<clipPath id="clip0">
<rect width="256" height="273" fill="white"/>
</clipPath>
</defs>
</svg>
